{
  "accessors": [
    {
      "bufferView": 0,
      "componentType": 5125,
      "count": 2442984,
      "type": "SCALAR"
    },
    {
      "bufferView": 1,
      "componentType": 5126,
      "count": 429159,
      "max": [
        0.403353154659271,
        0.999999940395355,
        0.364840358495712
      ],
      "min": [
        -0.403353154659271,
        -1.0,
        -0.36484032869339
      ],
      "type": "VEC3"
    },
    {
      "bufferView": 2,
      "componentType": 5126,
      "count": 429159,
      "type": "VEC3"
    },
    {
      "bufferView": 3,
      "componentType": 5126,
      "count": 429159,
      "type": "VEC2"
    }
  ],
  "asset": {
    "generator": "Substance Painter 2019.3.3",
    "version": "2.0"
  },
  "bufferViews": [
    {
      "buffer": 0,
      "byteLength": 9771936,
      "target": 34963
    },
    {
      "buffer": 0,
      "byteLength": 5149908,
      "byteOffset": 9771936,
      "target": 34962
    },
    {
      "buffer": 0,
      "byteLength": 5149908,
      "byteOffset": 14921844,
      "target": 34962
    },
    {
      "buffer": 0,
      "byteLength": 3433272,
      "byteOffset": 20071752,
      "target": 34962
    }
  ],
  "buffers": [
    {
      "byteLength": 23505024,
      "uri": "PBR - Metallic Roughness.bin"
    }
  ],
  "images": [
    {
      "uri": "Material _190_baseColor.png"
    },
    {
      "uri": "Material _190_occlusionRoughnessMetallic.png"
    },
    {
      "uri": "Material _190_normal.png"
    }
  ],
  "materials": [
    {
      "alphaMode": "OPAQUE",
      "name": "Material _190",
      "normalTexture": {
        "index": 2
      },
      "occlusionTexture": {
        "index": 1
      },
      "pbrMetallicRoughness": {
        "baseColorTexture": {
          "index": 0
        },
        "metallicRoughnessTexture": {
          "index": 1
        }
      }
    }
  ],
  "meshes": [
    {
      "name": "Object051",
      "primitives": [
        {
          "attributes": {
            "NORMAL": 2,
            "POSITION": 1,
            "TEXCOORD_0": 3
          },
          "indices": 0,
          "material": 0,
          "mode": 4
        }
      ]
    }
  ],
  "nodes": [
    {
      "children": [
        1
      ],
      "name": "root",
      "scale": [
        23.6719245910645,
        23.6719245910645,
        23.6719245910645
      ],
      "translation": [
        -0.532266616821289,
        23.6705455780029,
        -0.0166435241699219
      ]
    },
    {
      "children": [
        2
      ],
      "name": "Object051"
    },
    {
      "mesh": 0,
      "name": "Object051"
    }
  ],
  "samplers": [
    {
      "magFilter": 9729,
      "minFilter": 9985,
      "wrapS": 10497,
      "wrapT": 10497
    }
  ],
  "scene": 0,
  "scenes": [
    {
      "name": "Scene",
      "nodes": [
        0
      ]
    }
  ],
  "textures": [
    {
      "sampler": 0,
      "source": 0
    },
    {
      "sampler": 0,
      "source": 1
    },
    {
      "sampler": 0,
      "source": 2
    }
  ]
}